<?xml version="1.0" encoding="UTF-8" standalone="no"?>
<svg xmlns:rdf="http://www.w3.org/1999/02/22-rdf-syntax-ns#" xmlns="http://www.w3.org/2000/svg" height="20" width="136" version="1.1" xmlns:cc="http://creativecommons.org/ns#" xmlns:dc="http://purl.org/dc/elements/1.1/">
<clipPath id="a">
<rect width="136" fill="#fff" rx="3" height="20"/>
</clipPath>
<g clip-path="url(#a)">
<path d="m0 0h71v20h-71z" fill="#555"/>
<path style="fill:#73cd9d" d="m71 0h65v20h-65z"/>
</g>
<g font-size="11" font-family="DejaVu Sans,Verdana,Geneva,sans-serif" text-anchor="middle" fill="#fff">
<text fill-opacity=".3" textLength="57" y="15" x="36.5" fill="#010101">made with</text>
<text y="14" x="36.5" textLength="570">made with</text>
<text y="15" x="94.507538" style="fill-opacity:.3;fill:#010101" textLength="39">siimple</text>
<text y="14" x="94.507538" textLength="39">siimple</text>
</g>
<g style="fill-opacity:.30196;fill:#010101" transform="matrix(0.075 0 0 0.075 107.93 -5.4999)">
<path style="fill-rule:evenodd;fill:#010101;fill-opacity:.30196" d="m153.5 183.33c-6.9 0-12.5 5.6-12.5 12.5v75.73c0 7.3 2.81 14.31 7.85 19.59h0.02c5.36 5.64 12.79 8.84 20.57 8.85h59.79c0.24 0 0.48-0.01 0.72-0.03 0.64-0.01 1.28-0.06 1.93-0.12 0.42-0.04 0.84-0.09 1.26-0.15 0.52-0.07 1.04-0.16 1.55-0.26 0.4-0.08 0.8-0.17 1.2-0.26 0.55-0.14 1.1-0.28 1.64-0.45h0.01c0.34-0.11 0.67-0.22 1.01-0.34 0.56-0.19 1.11-0.4 1.66-0.63 0.32-0.14 0.64-0.28 0.96-0.43 0.55-0.25 1.1-0.52 1.63-0.81l0.84-0.48c0.55-0.32 1.09-0.66 1.61-1.02h0.01c0.24-0.17 0.48-0.34 0.71-0.52 0.55-0.39 1.07-0.81 1.59-1.24 0.19-0.16 0.37-0.32 0.56-0.48 0.52-0.47 1.03-0.96 1.52-1.46 5.14-5.3 8.01-12.38 8.03-19.76v-4.4c7.72-4.97 14.99-10.2 20.91-16.2 6.95-7.04 12.34-15.67 12.42-25.86 0.12-7.97-2.33-15.06-6.98-19.93s-11.01-7.17-17.22-7.46c-3.04-0.15-6.12 0.12-9.13 0.78v-2.66c0-6.9-5.6-12.5-12.5-12.5h-91.67zm111.41 31.02c0.37-0.02 0.74-0.01 1.09 0 2.82 0.14 4.69 1 5.96 2.33 1.28 1.33 2.45 3.51 2.37 8.19v0.09c-0.02 4.38-2.35 8.96-7.61 14.3-2.49 2.51-5.58 5.08-9.05 7.66v-30.78c2.5-1.09 5.03-1.71 7.24-1.79zm-88.91 11.65c6.71 0 12 5.77 12 12.55 0.07 4.6-6.86 4.6-6.79 0 0-3.33-2.41-5.76-5.21-5.76s-5.21 2.43-5.21 5.76c0.07 4.6-6.86 4.6-6.79 0 0-6.78 5.29-12.55 12-12.55zm46 0c6.71 0 12 5.77 12 12.55 0.07 4.6-6.86 4.6-6.79 0 0-3.33-2.41-5.76-5.21-5.76s-5.21 2.43-5.21 5.76c0.07 4.6-6.86 4.6-6.79 0 0-6.78 5.29-12.55 12-12.55zm-30.88 24h17.76c1.72 0 3.12 1.4 3.12 3.12 0 4.5-2.16 8.73-5.88 11.1-3.73 2.37-8.51 2.37-12.24 0-3.72-2.37-5.88-6.6-5.88-11.1 0-1.72 1.4-3.12 3.12-3.12z"/>
<path style="opacity:.6;color-rendering:auto;text-decoration-color:#000000;color:#000000;isolation:auto;mix-blend-mode:normal;fill-rule:evenodd;shape-rendering:auto;solid-color:#000000;block-progression:tb;text-decoration-line:none;image-rendering:auto;white-space:normal;text-indent:0;fill-opacity:.30196;text-transform:none;text-decoration-style:solid;fill:#010101" d="m166 100a8.3341 8.3341 0 1 0 0 16.667h8.3333a8.3341 8.3341 0 1 1 0 16.667h-16.667a8.3341 8.3341 0 1 0 0 16.667h33.333a8.3341 8.3341 0 1 1 0 16.667h-16.667a8.3341 8.3341 0 1 0 0 16.667h58.333a8.3341 8.3341 0 1 0 0 -16.667h-12.5a8.3341 8.3341 0 1 1 0 -16.667h12.5a8.3341 8.3341 0 1 0 0 -16.667h-33.999a8.3341 8.3341 0 0 0 0.23764 -0.008 8.3341 8.3341 0 0 1 0.19042 -16.65 8.3341 8.3341 0 0 0 -0.42806 -0.008h50.665a8.3341 8.3341 0 1 0 0 -16.667h-83.333z"/>
</g>
<path style="fill-rule:evenodd;fill:#ffffff" d="m119.44 7.2498c-0.5175 0-0.9375 0.42-0.9375 0.9375v5.6797c0 0.5475 0.21075 1.0732 0.58875 1.4692h0.001c0.402 0.423 0.95924 0.663 1.5427 0.66375h4.4842c0.018 0 0.036-0.00075 0.054-0.0023 0.048-0.00075 0.096-0.0045 0.14475-0.009 0.0315-0.003 0.063-0.0068 0.0945-0.01125 0.039-0.0052 0.078-0.012 0.11625-0.0195 0.03-0.006 0.06-0.01275 0.09-0.0195 0.0412-0.0105 0.0825-0.021 0.123-0.03375h0.00075c0.0255-0.0083 0.0502-0.0165 0.0757-0.0255 0.042-0.01425 0.0832-0.03 0.1245-0.04725 0.024-0.0105 0.048-0.021 0.072-0.03225 0.0412-0.01875 0.0825-0.039 0.12225-0.06075l0.063-0.036c0.0413-0.024 0.0817-0.0495 0.12075-0.0765h0.00075c0.018-0.01275 0.036-0.0255 0.0533-0.039 0.0412-0.02925 0.0802-0.06075 0.11925-0.093 0.0143-0.012 0.0277-0.024 0.042-0.036 0.039-0.03525 0.0773-0.072 0.114-0.1095 0.38549-0.3975 0.60074-0.9285 0.60224-1.482v-0.33c0.579-0.37275 1.1242-0.765 1.5682-1.215 0.52125-0.528 0.9255-1.1752 0.9315-1.9395 0.009-0.59775-0.17475-1.1295-0.5235-1.4947-0.34875-0.36525-0.82575-0.53775-1.2915-0.5595-0.228-0.01125-0.459 0.009-0.68475 0.0585v-0.1995c0-0.5175-0.42-0.9375-0.93749-0.9375-2.2906 0.0000694-4.5827 0.0000518-6.8747 0.0000518zm8.3557 2.3265c0.0277-0.0015 0.0555-0.00075 0.0817 0 0.2115 0.0105 0.35175 0.075 0.447 0.17475 0.096 0.09975 0.18375 0.26325 0.17775 0.61425v0.0068c-0.001 0.3285-0.17625 0.672-0.57075 1.0725-0.18675 0.18825-0.4185 0.381-0.67875 0.5745v-2.3085c0.1875-0.08175 0.37725-0.12825 0.543-0.13425zm-6.6682 0.87375c0.50325 0 0.9 0.43275 0.9 0.94125 0.005 0.345-0.5145 0.345-0.50925 0 0-0.24975-0.18075-0.432-0.39075-0.432s-0.39075 0.18225-0.39075 0.432c0.005 0.345-0.5145 0.345-0.50925 0 0-0.5085 0.39675-0.94125 0.9-0.94125zm3.45 0c0.50325 0 0.9 0.43275 0.9 0.94125 0.005 0.345-0.5145 0.345-0.50925 0 0-0.24975-0.18075-0.432-0.39075-0.432s-0.39075 0.18225-0.39075 0.432c0.005 0.345-0.5145 0.345-0.50925 0 0-0.5085 0.39675-0.94125 0.9-0.94125zm-2.316 1.8h1.332c0.129 0 0.234 0.105 0.234 0.234 0 0.3375-0.162 0.65475-0.441 0.8325-0.27974 0.17775-0.63824 0.17775-0.91799 0-0.279-0.17775-0.441-0.495-0.441-0.8325 0-0.129 0.105-0.234 0.234-0.234z"/>
<path style="opacity:.6;color-rendering:auto;text-decoration-color:#000000;color:#000000;isolation:auto;mix-blend-mode:normal;fill-rule:evenodd;shape-rendering:auto;solid-color:#000000;block-progression:tb;text-decoration-line:none;image-rendering:auto;white-space:normal;text-indent:0;text-transform:none;text-decoration-style:solid;fill:#ffffff" d="m120.37 1a0.62506 0.62506 0 1 0 0 1.25h0.625a0.62506 0.62506 0 1 1 0 1.25h-1.25a0.62506 0.62506 0 1 0 0 1.25h2.5a0.62506 0.62506 0 1 1 0 1.25h-1.25a0.62506 0.62506 0 1 0 0 1.25h4.375a0.62506 0.62506 0 1 0 0 -1.25h-0.9375a0.62506 0.62506 0 1 1 0 -1.25h0.9375a0.62506 0.62506 0 1 0 0 -1.25h-2.5499a0.62506 0.62506 0 0 0 0.0178 -0.0006 0.62506 0.62506 0 0 1 0.0143 -1.2487 0.62506 0.62506 0 0 0 -0.0321 -0.0006h3.7999a0.62506 0.62506 0 1 0 0 -1.25h-6.25z"/>
</svg>
