<?xml version="1.0" encoding="UTF-8" standalone="no"?>
<svg xmlns:rdf="http://www.w3.org/1999/02/22-rdf-syntax-ns#" xmlns="http://www.w3.org/2000/svg" height="20" width="136" version="1.1" xmlns:cc="http://creativecommons.org/ns#" xmlns:dc="http://purl.org/dc/elements/1.1/">
<g shape-rendering="crispEdges">
<path d="m0 0h71v20h-71z" fill="#555"/>
<path style="fill:#5c95ff" d="m71 0h65v20h-65z"/>
</g>
<g font-size="11" font-family="DejaVu Sans,Verdana,Geneva,sans-serif" text-anchor="middle" fill="#fff">
<text y="14" x="36.5" textLength="53">plugin for</text>
<text y="14" x="94.507538" textLength="39">siimple</text>
</g>
<path style="fill:#ffffff;fill-rule:evenodd" d="m119.44 7.2498c-0.5175 0-0.9375 0.42-0.9375 0.9375v5.6797c0 0.5475 0.21075 1.0732 0.58875 1.4692h0.001c0.402 0.423 0.95924 0.663 1.5427 0.66375h4.4842c0.018 0 0.036-0.00075 0.054-0.0023 0.048-0.00075 0.096-0.0045 0.14475-0.009 0.0315-0.003 0.063-0.0068 0.0945-0.01125 0.039-0.0052 0.078-0.012 0.11625-0.0195 0.03-0.006 0.06-0.01275 0.09-0.0195 0.0412-0.0105 0.0825-0.021 0.123-0.03375h0.00075c0.0255-0.0083 0.0502-0.0165 0.0757-0.0255 0.042-0.01425 0.0832-0.03 0.1245-0.04725 0.024-0.0105 0.048-0.021 0.072-0.03225 0.0412-0.01875 0.0825-0.039 0.12225-0.06075l0.063-0.036c0.0413-0.024 0.0817-0.0495 0.12075-0.0765h0.00075c0.018-0.01275 0.036-0.0255 0.0533-0.039 0.0412-0.02925 0.0802-0.06075 0.11925-0.093 0.0143-0.012 0.0277-0.024 0.042-0.036 0.039-0.03525 0.0773-0.072 0.114-0.1095 0.38549-0.3975 0.60074-0.9285 0.60224-1.482v-0.33c0.579-0.37275 1.1242-0.765 1.5682-1.215 0.52125-0.528 0.9255-1.1752 0.9315-1.9395 0.009-0.59775-0.17475-1.1295-0.5235-1.4947-0.34875-0.36525-0.82575-0.53775-1.2915-0.5595-0.228-0.01125-0.459 0.009-0.68475 0.0585v-0.1995c0-0.5175-0.42-0.9375-0.93749-0.9375-2.2906 0.0000694-4.5827 0.0000518-6.8747 0.0000518zm8.3557 2.3265c0.0277-0.0015 0.0555-0.00075 0.0817 0 0.2115 0.0105 0.35175 0.075 0.447 0.17475 0.096 0.09975 0.18375 0.26325 0.17775 0.61425v0.0068c-0.001 0.3285-0.17625 0.672-0.57075 1.0725-0.18675 0.18825-0.4185 0.381-0.67875 0.5745v-2.3085c0.1875-0.08175 0.37725-0.12825 0.543-0.13425zm-6.6682 0.87375c0.50325 0 0.9 0.43275 0.9 0.94125 0.005 0.345-0.5145 0.345-0.50925 0 0-0.24975-0.18075-0.432-0.39075-0.432s-0.39075 0.18225-0.39075 0.432c0.005 0.345-0.5145 0.345-0.50925 0 0-0.5085 0.39675-0.94125 0.9-0.94125zm3.45 0c0.50325 0 0.9 0.43275 0.9 0.94125 0.005 0.345-0.5145 0.345-0.50925 0 0-0.24975-0.18075-0.432-0.39075-0.432s-0.39075 0.18225-0.39075 0.432c0.005 0.345-0.5145 0.345-0.50925 0 0-0.5085 0.39675-0.94125 0.9-0.94125zm-2.316 1.8h1.332c0.129 0 0.234 0.105 0.234 0.234 0 0.3375-0.162 0.65475-0.441 0.8325-0.27974 0.17775-0.63824 0.17775-0.91799 0-0.279-0.17775-0.441-0.495-0.441-0.8325 0-0.129 0.105-0.234 0.234-0.234z"/>
<path style="opacity:.6;color-rendering:auto;text-decoration-color:#000000;color:#000000;isolation:auto;mix-blend-mode:normal;fill-rule:evenodd;shape-rendering:auto;solid-color:#000000;block-progression:tb;text-decoration-line:none;image-rendering:auto;white-space:normal;text-indent:0;text-transform:none;text-decoration-style:solid;fill:#ffffff" d="m120.37 1a0.62506 0.62506 0 1 0 0 1.25h0.625a0.62506 0.62506 0 1 1 0 1.25h-1.25a0.62506 0.62506 0 1 0 0 1.25h2.5a0.62506 0.62506 0 1 1 0 1.25h-1.25a0.62506 0.62506 0 1 0 0 1.25h4.375a0.62506 0.62506 0 1 0 0 -1.25h-0.9375a0.62506 0.62506 0 1 1 0 -1.25h0.9375a0.62506 0.62506 0 1 0 0 -1.25h-2.5499a0.62506 0.62506 0 0 0 0.0178 -0.0006 0.62506 0.62506 0 0 1 0.0143 -1.2487 0.62506 0.62506 0 0 0 -0.0321 -0.0006h3.7999a0.62506 0.62506 0 1 0 0 -1.25h-6.25z"/>
</svg>
